<svg width="0" height="0" class="hidden">
  <symbol fill="none" xmlns="http://www.w3.org/2000/svg" id="Модальное окно">
    <path fill="#000" fill-opacity=".2" d="M0 0h1600v1024H0z"></path>
    <path d="M536 225a4 4 0 14-4 NaN NaN 4 4 0 14 4 NaN NaN 4 4 0 1-4 NaN NaN 4 4 0 1-4 NaN NaNz" fill="#fff" filter="url(#filter0_ddd)"></path>
    <circle cx="1041" cy="244" r="15" fill="#fff"></circle>
    <circle cx="1041" cy="244" r="14.5" stroke="#000" stroke-opacity=".1"></circle>
    <path d="M1047 239.108l-1.11-1.108-4.39 4.392-4.39-4.392-1.11 1.108 4.39 4.392-4.39 4.392 1.11 1.108 4.39-4.392 4.39 4.392 1.11-1.108-4.39-4.392 4.39-4.392z" fill="#000"></path>
    <defs>
      <filter id="filter0_ddd" x="533" y="219" width="534" height="587" filterUnits="userSpaceOnUse" color-interpolation-filters="sRGB">
        <feFlood flood-opacity="0" result="BackgroundImageFix"></feFlood>
        <feColorMatrix in="SourceAlpha" values="0 0 0 0 0 0 0 0 0 0 0 0 0 0 0 0 0 0 127 0"></feColorMatrix>
        <feOffset dy="2"></feOffset>
        <feGaussianBlur stdDeviation=".5"></feGaussianBlur>
        <feColorMatrix values="0 0 0 0 0 0 0 0 0 0 0 0 0 0 0 0 0 0 0.2 0"></feColorMatrix>
        <feBlend in2="BackgroundImageFix" result="effect1_dropShadow"></feBlend>
        <feColorMatrix in="SourceAlpha" values="0 0 0 0 0 0 0 0 0 0 0 0 0 0 0 0 0 0 127 0"></feColorMatrix>
        <feOffset dy="1"></feOffset>
        <feGaussianBlur stdDeviation=".5"></feGaussianBlur>
        <feColorMatrix values="0 0 0 0 0 0 0 0 0 0 0 0 0 0 0 0 0 0 0.14 0"></feColorMatrix>
        <feBlend in2="effect1_dropShadow" result="effect2_dropShadow"></feBlend>
        <feColorMatrix in="SourceAlpha" values="0 0 0 0 0 0 0 0 0 0 0 0 0 0 0 0 0 0 127 0"></feColorMatrix>
        <feOffset dy="1"></feOffset>
        <feGaussianBlur stdDeviation="1.5"></feGaussianBlur>
        <feColorMatrix values="0 0 0 0 0 0 0 0 0 0 0 0 0 0 0 0 0 0 0.12 0"></feColorMatrix>
        <feBlend in2="effect2_dropShadow" result="effect3_dropShadow"></feBlend>
        <feBlend in="SourceGraphic" in2="effect3_dropShadow" result="shape"></feBlend>
      </filter>
    </defs>
  </symbol>
</svg>