<svg width="0" height="0" class="hidden"><symbol xmlns="http://www.w3.org/2000/svg" id="Модальное окно" fill="none"><path fill="#000" fill-opacity=".2" d="M0 0h1600v1024H0z"/><path fill="#fff" d="M536 225a4 4 0 14-4 NaN NaN 4 4 0 14 4 NaN NaN 4 4 0 1-4 NaN NaN 4 4 0 1-4 NaN NaNz" filter="url(#filter0_ddd)"/><circle cx="1041" cy="244" r="15" fill="#fff"/><circle cx="1041" cy="244" r="14.5" stroke="#000" stroke-opacity=".1"/><path fill="#000" d="M1047 239.108l-1.11-1.108-4.39 4.392-4.39-4.392-1.11 1.108 4.39 4.392-4.39 4.392 1.11 1.108 4.39-4.392 4.39 4.392 1.11-1.108-4.39-4.392 4.39-4.392z"/><defs><filter id="filter0_ddd" width="534" height="587" x="533" y="219" color-interpolation-filters="sRGB" filterUnits="userSpaceOnUse"><feFlood flood-opacity="0" result="BackgroundImageFix"/><feColorMatrix in="SourceAlpha" values="0 0 0 0 0 0 0 0 0 0 0 0 0 0 0 0 0 0 127 0"/><feOffset dy="2"/><feGaussianBlur stdDeviation=".5"/><feColorMatrix values="0 0 0 0 0 0 0 0 0 0 0 0 0 0 0 0 0 0 0.2 0"/><feBlend in2="BackgroundImageFix" result="effect1_dropShadow"/><feColorMatrix in="SourceAlpha" values="0 0 0 0 0 0 0 0 0 0 0 0 0 0 0 0 0 0 127 0"/><feOffset dy="1"/><feGaussianBlur stdDeviation=".5"/><feColorMatrix values="0 0 0 0 0 0 0 0 0 0 0 0 0 0 0 0 0 0 0.14 0"/><feBlend in2="effect1_dropShadow" result="effect2_dropShadow"/><feColorMatrix in="SourceAlpha" values="0 0 0 0 0 0 0 0 0 0 0 0 0 0 0 0 0 0 127 0"/><feOffset dy="1"/><feGaussianBlur stdDeviation="1.5"/><feColorMatrix values="0 0 0 0 0 0 0 0 0 0 0 0 0 0 0 0 0 0 0.12 0"/><feBlend in2="effect2_dropShadow" result="effect3_dropShadow"/><feBlend in="SourceGraphic" in2="effect3_dropShadow" result="shape"/></filter></defs></symbol></svg>