<svg width="1600" height="1024" fill="none" xmlns="http://www.w3.org/2000/svg"><path fill="#000" fill-opacity=".2" d="M0 0h1600v1024H0z"/><g filter="url(#filter0_ddd)"><path d="M536 225a4 4 0 014-4h520a4 4 0 014 4v573a4 4 0 01-4 4H540a4 4 0 01-4-4V225z" fill="#fff"/></g><circle cx="1041" cy="244" r="15" fill="#fff"/><circle cx="1041" cy="244" r="14.5" stroke="#000" stroke-opacity=".1"/><path d="M1047 239.108l-1.11-1.108-4.39 4.392-4.39-4.392-1.11 1.108 4.39 4.392-4.39 4.392 1.11 1.108 4.39-4.392 4.39 4.392 1.11-1.108-4.39-4.392 4.39-4.392z" fill="#000"/><defs><filter id="filter0_ddd" x="533" y="219" width="534" height="587" filterUnits="userSpaceOnUse" color-interpolation-filters="sRGB"><feFlood flood-opacity="0" result="BackgroundImageFix"/><feColorMatrix in="SourceAlpha" values="0 0 0 0 0 0 0 0 0 0 0 0 0 0 0 0 0 0 127 0"/><feOffset dy="2"/><feGaussianBlur stdDeviation=".5"/><feColorMatrix values="0 0 0 0 0 0 0 0 0 0 0 0 0 0 0 0 0 0 0.2 0"/><feBlend in2="BackgroundImageFix" result="effect1_dropShadow"/><feColorMatrix in="SourceAlpha" values="0 0 0 0 0 0 0 0 0 0 0 0 0 0 0 0 0 0 127 0"/><feOffset dy="1"/><feGaussianBlur stdDeviation=".5"/><feColorMatrix values="0 0 0 0 0 0 0 0 0 0 0 0 0 0 0 0 0 0 0.14 0"/><feBlend in2="effect1_dropShadow" result="effect2_dropShadow"/><feColorMatrix in="SourceAlpha" values="0 0 0 0 0 0 0 0 0 0 0 0 0 0 0 0 0 0 127 0"/><feOffset dy="1"/><feGaussianBlur stdDeviation="1.5"/><feColorMatrix values="0 0 0 0 0 0 0 0 0 0 0 0 0 0 0 0 0 0 0.12 0"/><feBlend in2="effect2_dropShadow" result="effect3_dropShadow"/><feBlend in="SourceGraphic" in2="effect3_dropShadow" result="shape"/></filter></defs></svg>